<mxfile host="app.diagrams.net" modified="2021-03-03T02:37:10.148Z" agent="5.0 (Windows NT 10.0; Win64; x64) AppleWebKit/537.36 (KHTML, like Gecko) Chrome/88.0.4324.190 Safari/537.36" etag="mp4clNump6faWOabyyAi" version="14.4.3" type="github" pages="2">
  <diagram id="jTRVxhhDS5lnEadHWDOp" name="on pc">
    <mxGraphModel dx="868" dy="492" grid="1" gridSize="10" guides="1" tooltips="1" connect="1" arrows="1" fold="1" page="1" pageScale="1" pageWidth="827" pageHeight="1169" math="0" shadow="0">
      <root>
        <mxCell id="0" />
        <mxCell id="1" parent="0" />
        <mxCell id="XGExtQAVM9hk3K5CSbnA-1" value="" style="rounded=0;whiteSpace=wrap;html=1;fillColor=#ffe6cc;" vertex="1" parent="1">
          <mxGeometry width="680" height="400" as="geometry" />
        </mxCell>
        <mxCell id="XGExtQAVM9hk3K5CSbnA-2" value="" style="rounded=0;whiteSpace=wrap;html=1;" vertex="1" parent="1">
          <mxGeometry x="120" width="250" height="60" as="geometry" />
        </mxCell>
        <mxCell id="XGExtQAVM9hk3K5CSbnA-3" value="&lt;font style=&quot;vertical-align: inherit&quot;&gt;&lt;font style=&quot;vertical-align: inherit&quot;&gt;календарь&lt;/font&gt;&lt;/font&gt;" style="rounded=0;whiteSpace=wrap;html=1;" vertex="1" parent="1">
          <mxGeometry x="150" y="10" width="190" height="20" as="geometry" />
        </mxCell>
        <mxCell id="XGExtQAVM9hk3K5CSbnA-4" value="" style="rounded=0;whiteSpace=wrap;html=1;" vertex="1" parent="1">
          <mxGeometry x="150" y="40" width="10" height="10" as="geometry" />
        </mxCell>
        <mxCell id="XGExtQAVM9hk3K5CSbnA-5" value="&lt;font style=&quot;vertical-align: inherit&quot;&gt;&lt;font style=&quot;vertical-align: inherit&quot;&gt;на всю неделю&lt;/font&gt;&lt;/font&gt;" style="text;html=1;strokeColor=none;fillColor=none;align=center;verticalAlign=middle;whiteSpace=wrap;rounded=0;" vertex="1" parent="1">
          <mxGeometry x="180" y="35" width="160" height="20" as="geometry" />
        </mxCell>
        <mxCell id="XGExtQAVM9hk3K5CSbnA-6" value="&lt;font style=&quot;vertical-align: inherit&quot;&gt;&lt;font style=&quot;vertical-align: inherit&quot;&gt;Живой Поиск&lt;br&gt;&lt;/font&gt;&lt;/font&gt;" style="rounded=0;whiteSpace=wrap;html=1;" vertex="1" parent="1">
          <mxGeometry x="360" width="320" height="60" as="geometry" />
        </mxCell>
        <mxCell id="XGExtQAVM9hk3K5CSbnA-12" value="Выпадающий список с поиском&amp;nbsp;" style="rounded=0;whiteSpace=wrap;html=1;strokeColor=#000000;" vertex="1" parent="1">
          <mxGeometry x="10" y="110" width="350" height="30" as="geometry" />
        </mxCell>
        <mxCell id="XGExtQAVM9hk3K5CSbnA-13" value="Расписание в табличном виде" style="rounded=0;whiteSpace=wrap;html=1;strokeColor=#000000;" vertex="1" parent="1">
          <mxGeometry y="150" width="680" height="250" as="geometry" />
        </mxCell>
        <mxCell id="XGExtQAVM9hk3K5CSbnA-14" value="" style="group" vertex="1" connectable="0" parent="1">
          <mxGeometry y="60" width="680" height="40" as="geometry" />
        </mxCell>
        <mxCell id="XGExtQAVM9hk3K5CSbnA-7" value="Группа" style="rounded=0;whiteSpace=wrap;html=1;fillColor=#ffe6cc;strokeColor=#d79b00;" vertex="1" parent="XGExtQAVM9hk3K5CSbnA-14">
          <mxGeometry width="120" height="40" as="geometry" />
        </mxCell>
        <mxCell id="XGExtQAVM9hk3K5CSbnA-8" value="Преподаватель" style="rounded=0;whiteSpace=wrap;html=1;" vertex="1" parent="XGExtQAVM9hk3K5CSbnA-14">
          <mxGeometry x="120" width="120" height="40" as="geometry" />
        </mxCell>
        <mxCell id="XGExtQAVM9hk3K5CSbnA-9" value="Аудитория" style="rounded=0;whiteSpace=wrap;html=1;" vertex="1" parent="XGExtQAVM9hk3K5CSbnA-14">
          <mxGeometry x="240" width="120" height="40" as="geometry" />
        </mxCell>
        <mxCell id="XGExtQAVM9hk3K5CSbnA-11" value="" style="rounded=0;whiteSpace=wrap;html=1;perimeterSpacing=0;" vertex="1" parent="XGExtQAVM9hk3K5CSbnA-14">
          <mxGeometry x="360" width="320" height="40" as="geometry" />
        </mxCell>
        <mxCell id="XGExtQAVM9hk3K5CSbnA-21" value="Лого" style="rounded=0;whiteSpace=wrap;html=1;fillColor=#E6E6E6;" vertex="1" parent="1">
          <mxGeometry width="120" height="60" as="geometry" />
        </mxCell>
      </root>
    </mxGraphModel>
  </diagram>
  <diagram id="tF_D5IrcE_ftOY61rw2E" name="on mobile">
    <mxGraphModel dx="2067" dy="1790" grid="1" gridSize="10" guides="1" tooltips="1" connect="1" arrows="1" fold="1" page="1" pageScale="1" pageWidth="827" pageHeight="1169" math="0" shadow="0">
      <root>
        <mxCell id="ZuR-GGUAfFjOeKd3YtZW-0" />
        <mxCell id="ZuR-GGUAfFjOeKd3YtZW-1" parent="ZuR-GGUAfFjOeKd3YtZW-0" />
        <mxCell id="5kQzYJPkt0Qy0FxCSbqf-29" value="" style="group" vertex="1" connectable="0" parent="ZuR-GGUAfFjOeKd3YtZW-1">
          <mxGeometry x="-810" width="360" height="500" as="geometry" />
        </mxCell>
        <mxCell id="5kQzYJPkt0Qy0FxCSbqf-20" value="Расписание в табличном виде" style="rounded=0;whiteSpace=wrap;html=1;strokeColor=#000000;strokeWidth=4;" vertex="1" parent="5kQzYJPkt0Qy0FxCSbqf-29">
          <mxGeometry width="360" height="500" as="geometry" />
        </mxCell>
        <mxCell id="5kQzYJPkt0Qy0FxCSbqf-6" value="Выпадающий список с поиском&amp;nbsp;" style="rounded=0;whiteSpace=wrap;html=1;fillColor=#ffe6cc;strokeColor=#0000FF;strokeWidth=2;" vertex="1" parent="5kQzYJPkt0Qy0FxCSbqf-29">
          <mxGeometry y="160" width="360" height="30" as="geometry" />
        </mxCell>
        <mxCell id="5kQzYJPkt0Qy0FxCSbqf-15" value="" style="rounded=0;whiteSpace=wrap;html=1;fontFamily=Tahoma;align=left;" vertex="1" parent="5kQzYJPkt0Qy0FxCSbqf-29">
          <mxGeometry width="360" height="60" as="geometry" />
        </mxCell>
        <mxCell id="5kQzYJPkt0Qy0FxCSbqf-16" value="logo" style="rounded=0;whiteSpace=wrap;html=1;fontFamily=Tahoma;align=center;" vertex="1" parent="5kQzYJPkt0Qy0FxCSbqf-29">
          <mxGeometry width="70" height="60" as="geometry" />
        </mxCell>
        <mxCell id="5kQzYJPkt0Qy0FxCSbqf-17" value="Menu" style="rounded=0;whiteSpace=wrap;html=1;fontFamily=Tahoma;align=center;labelBackgroundColor=none;fillColor=#999999;" vertex="1" parent="5kQzYJPkt0Qy0FxCSbqf-29">
          <mxGeometry x="290" width="70" height="60" as="geometry" />
        </mxCell>
        <mxCell id="5kQzYJPkt0Qy0FxCSbqf-18" value="&lt;font style=&quot;vertical-align: inherit&quot;&gt;&lt;font style=&quot;vertical-align: inherit&quot;&gt;Живой Поиск&lt;br&gt;&lt;/font&gt;&lt;/font&gt;" style="rounded=0;whiteSpace=wrap;html=1;fillColor=#999999;" vertex="1" parent="5kQzYJPkt0Qy0FxCSbqf-29">
          <mxGeometry y="60" width="360" height="60" as="geometry" />
        </mxCell>
        <mxCell id="5kQzYJPkt0Qy0FxCSbqf-10" value="Преподаватель" style="rounded=0;whiteSpace=wrap;html=1;" vertex="1" parent="5kQzYJPkt0Qy0FxCSbqf-29">
          <mxGeometry x="120" y="120" width="120" height="40" as="geometry" />
        </mxCell>
        <mxCell id="5kQzYJPkt0Qy0FxCSbqf-9" value="Группа" style="rounded=0;whiteSpace=wrap;html=1;fillColor=#ffe6cc;strokeColor=#d79b00;" vertex="1" parent="5kQzYJPkt0Qy0FxCSbqf-29">
          <mxGeometry y="120" width="120" height="40" as="geometry" />
        </mxCell>
        <mxCell id="5kQzYJPkt0Qy0FxCSbqf-11" value="Аудитория" style="rounded=0;whiteSpace=wrap;html=1;" vertex="1" parent="5kQzYJPkt0Qy0FxCSbqf-29">
          <mxGeometry x="240" y="120" width="120" height="40" as="geometry" />
        </mxCell>
        <mxCell id="5kQzYJPkt0Qy0FxCSbqf-19" value="&lt;font style=&quot;vertical-align: inherit&quot;&gt;&lt;font style=&quot;vertical-align: inherit&quot;&gt;Кнопка&lt;br&gt;&lt;/font&gt;&lt;/font&gt;" style="rounded=0;whiteSpace=wrap;html=1;fillColor=#E6E6E6;strokeWidth=2;strokeColor=#0000FF;" vertex="1" parent="5kQzYJPkt0Qy0FxCSbqf-29">
          <mxGeometry y="190" width="360" height="60" as="geometry" />
        </mxCell>
        <mxCell id="5kQzYJPkt0Qy0FxCSbqf-21" value="Menu" style="rounded=0;whiteSpace=wrap;html=1;fontFamily=Tahoma;align=center;labelBackgroundColor=none;fillColor=#999999;strokeWidth=2;strokeColor=#0000FF;" vertex="1" parent="5kQzYJPkt0Qy0FxCSbqf-29">
          <mxGeometry x="290" width="70" height="60" as="geometry" />
        </mxCell>
        <mxCell id="5kQzYJPkt0Qy0FxCSbqf-22" value="&lt;font style=&quot;vertical-align: inherit&quot;&gt;&lt;font style=&quot;vertical-align: inherit&quot;&gt;Живой Поиск&lt;br&gt;&lt;/font&gt;&lt;/font&gt;" style="rounded=0;whiteSpace=wrap;html=1;fillColor=#999999;strokeWidth=2;strokeColor=#0000FF;" vertex="1" parent="5kQzYJPkt0Qy0FxCSbqf-29">
          <mxGeometry y="60" width="360" height="60" as="geometry" />
        </mxCell>
        <mxCell id="5kQzYJPkt0Qy0FxCSbqf-23" value="Аудитория" style="rounded=0;whiteSpace=wrap;html=1;strokeWidth=2;strokeColor=#0000FF;" vertex="1" parent="5kQzYJPkt0Qy0FxCSbqf-29">
          <mxGeometry x="240" y="120" width="120" height="40" as="geometry" />
        </mxCell>
        <mxCell id="5kQzYJPkt0Qy0FxCSbqf-24" value="Преподаватель" style="rounded=0;whiteSpace=wrap;html=1;strokeWidth=2;strokeColor=#0000FF;" vertex="1" parent="5kQzYJPkt0Qy0FxCSbqf-29">
          <mxGeometry x="120" y="120" width="120" height="40" as="geometry" />
        </mxCell>
        <mxCell id="5kQzYJPkt0Qy0FxCSbqf-25" value="Группа" style="rounded=0;whiteSpace=wrap;html=1;fillColor=#ffe6cc;strokeWidth=2;strokeColor=#0000FF;" vertex="1" parent="5kQzYJPkt0Qy0FxCSbqf-29">
          <mxGeometry y="120" width="120" height="40" as="geometry" />
        </mxCell>
        <mxCell id="5kQzYJPkt0Qy0FxCSbqf-26" value="&lt;font style=&quot;vertical-align: inherit&quot;&gt;&lt;font style=&quot;vertical-align: inherit&quot;&gt;Информационный блок&lt;br&gt;&lt;/font&gt;&lt;/font&gt;" style="rounded=0;whiteSpace=wrap;html=1;fillColor=#dae8fc;strokeColor=#00FFFF;" vertex="1" parent="5kQzYJPkt0Qy0FxCSbqf-29">
          <mxGeometry y="250" width="360" height="40" as="geometry" />
        </mxCell>
      </root>
    </mxGraphModel>
  </diagram>
</mxfile>
